<svg height="511pt" viewBox="-76 1 511 511.99998" width="511pt" xmlns="http://www.w3.org/2000/svg"><path d="m70.601562 0h219.214844v84.78125h-219.214844zm0 0" fill="#6ac0cc"/><path d="m70.601562 0-52.476562 38.152344c-18.425781 13.394531-23.121094 38.878906-10.675781 57.960937l86.207031 132.171875 90.160156-54.699218zm0 0" fill="#7bcbd7"/><path d="m289.816406 0 52.476563 38.152344c18.425781 13.394531 23.117187 38.878906 10.671875 57.960937l-86.203125 132.171875-90.164063-54.699218zm0 0" fill="#7bcbd7"/><path d="m151.648438 124.269531c-36.855469 5.027344-70.703126 19.636719-98.941407 41.234375l40.949219 62.78125 90.160156-54.699218zm0 0" fill="#6ac0cc"/><path d="m176.597656 173.585938 90.164063 54.695312 40.949219-62.78125c-28.242188-21.597656-62.085938-36.207031-98.945313-41.234375zm0 0" fill="#6ac0cc"/><path d="m359.59375 332.613281c0 99.074219-80.3125 179.386719-179.386719 179.386719-99.070312 0-179.386719-80.3125-179.386719-179.386719 0-99.070312 80.316407-179.386719 179.386719-179.386719 99.074219 0 179.386719 80.316407 179.386719 179.386719zm0 0" fill="#fed84a"/><path d="m315.765625 332.613281c0 74.867188-60.691406 135.558594-135.558594 135.558594-74.867187 0-135.558593-60.691406-135.558593-135.558594 0-74.867187 60.691406-135.558593 135.558593-135.558593 74.867188 0 135.558594 60.691406 135.558594 135.558593zm0 0" fill="#fee588"/><g fill="#514e5b"><path d="m105.136719 343.507812c-4.269531 0-7.726563-3.460937-7.726563-7.726562v-13.589844c0-4.265625 3.457032-7.722656 7.726563-7.722656 4.265625 0 7.726562 3.457031 7.726562 7.722656v13.589844c0 4.265625-3.460937 7.726562-7.726562 7.726562zm0 0"/><path d="m255.28125 343.507812c-4.269531 0-7.726562-3.460937-7.726562-7.726562v-13.589844c0-4.265625 3.457031-7.722656 7.726562-7.722656 4.265625 0 7.726562 3.457031 7.726562 7.722656v13.589844c0 4.265625-3.460937 7.726562-7.726562 7.726562zm0 0"/><path d="m180.207031 350.757812c-9.449219 0-18.324219-3.949218-24.34375-10.839843-2.808593-3.210938-2.480469-8.09375.730469-10.902344 3.214844-2.808594 8.09375-2.480469 10.902344.734375 3.085937 3.53125 7.71875 5.554688 12.710937 5.554688 4.992188 0 9.625-2.023438 12.710938-5.554688 2.808593-3.214844 7.691406-3.542969 10.902343-.730469 3.214844 2.808594 3.542969 7.6875.734376 10.902344-6.023438 6.886719-14.894532 10.835937-24.347657 10.835937zm0 0"/></g></svg>