<?xml version="1.0" encoding="iso-8859-1"?>
<!-- Generator: Adobe Illustrator 19.0.0, SVG Export Plug-In . SVG Version: 6.00 Build 0)  -->
<svg version="1.1" id="Capa_1" xmlns="http://www.w3.org/2000/svg" xmlns:xlink="http://www.w3.org/1999/xlink" x="0px" y="0px"
	 viewBox="0 0 512.002 512.002" style="enable-background:new 0 0 512.002 512.002;" xml:space="preserve">
<path style="fill:#A45E43;" d="M301.001,7.5v135c37.279,0,67.5-30.221,67.5-67.5S338.28,7.5,301.001,7.5z"/>
<path style="fill:#C27749;" d="M338.501,75c0-37.279-16.789-67.5-37.5-67.5c-37.279,0-67.5,30.221-67.5,67.5s30.221,67.5,67.5,67.5
	C321.712,142.5,338.501,112.279,338.501,75z"/>
<path style="fill:#FFB4A9;" d="M328.001,61.5h-27v81c24.85,0,45-20.15,45-45C346.001,82.78,338.931,69.7,328.001,61.5z"/>
<path style="fill:#FFD9D4;" d="M314.201,76.14c1.15,6.36,1.8,13.63,1.8,21.36c0,24.85-6.72,45-15,45c-24.85,0-45-20.15-45-45
	L314.201,76.14z"/>
<path style="fill:#FFE2A8;" d="M328.001,61.5c-4.04,5.38-8.67,10.29-13.8,14.64l-13.2-23.64
	C311.121,52.5,320.481,55.85,328.001,61.5z"/>
<path style="fill:#FFF0D3;" d="M256.001,97.5c0-24.85,20.15-45,45-45c5.7,0,10.67,9.56,13.2,23.64
	C298.511,89.46,278.191,97.5,256.001,97.5z"/>
<path style="fill:#A45E43;" d="M301.001,232.5v105c24.853,0,45-20.147,45-45L301.001,232.5z"/>
<path style="fill:#C27749;" d="M316.001,292.5v-60l-60,60c0,24.853,20.147,45,45,45C309.285,337.5,316.001,317.353,316.001,292.5z"
	/>
<polygon style="fill:#60312C;" points="316.001,292.5 346.001,292.5 346.001,262.5 286.001,232.5 "/>
<polygon style="fill:#EBEBEB;" points="286.001,292.5 316.001,292.5 316.001,262.5 271.001,232.5 "/>
<polygon style="fill:#85453D;" points="286.001,292.5 256.001,292.5 256.001,262.5 286.001,232.5 "/>
<path style="fill:#C27749;" d="M326.001,172.5h-25l-30,44.994l30,44.994l45,0.012v-70C346.001,181.454,337.047,172.5,326.001,172.5z
	"/>
<path style="fill:#E18F4E;" d="M301.001,172.5h-25c-11.046,0-20,8.954-20,20v70l45-0.012V172.5z"/>
<polygon style="fill:#85453D;" points="271.001,439.5 271.001,489.5 241.001,499.5 241.001,439.5 "/>
<polygon style="fill:#60312C;" points="361.001,439.5 361.001,499.5 331.001,489.5 331.001,439.5 "/>
<polygon style="fill:#FFCB63;" points="188.501,192.5 169.926,252.5 188.501,312.5 226.001,292.5 226.001,172.5 "/>
<polygon style="fill:#FFF0D3;" points="188.501,192.5 151.001,172.5 129.973,232.5 151.001,292.5 188.501,312.5 "/>
<polygon style="fill:#FFE2A8;" points="113.501,192.5 92.473,252.5 113.501,312.5 151.001,292.5 151.001,172.5 "/>
<polygon style="fill:#FFF0D3;" points="76.001,172.5 76.001,292.5 113.501,312.5 113.501,192.5 "/>
<path d="M353.501,292.5v-92.786c50.271-3.842,90-45.976,90-97.214c0-4.142-3.357-7.5-7.5-7.5s-7.5,3.358-7.5,7.5
	c0,43.344-33.605,78.961-76.125,82.229c-3.362-11.39-13.91-19.729-26.375-19.729h-50c-15.164,0-27.5,12.336-27.5,27.5v100
	c0,14.269,5.73,27.22,15,36.692V432h-22.5c-4.142,0-7.5,3.358-7.5,7.5v54.594l-9.872,3.291c-3.93,1.31-6.053,5.557-4.744,9.487
	c1.048,3.143,3.974,5.13,7.114,5.13c0.786,0,1.586-0.125,2.373-0.387l14.854-4.951c0.016-0.005,30.147-10.049,30.147-10.049
	c3.062-1.021,5.128-3.887,5.128-7.115V339.924c6.824,3.25,14.452,5.076,22.5,5.076s15.676-1.825,22.5-5.076V489.5
	c0,3.228,2.065,6.094,5.128,7.115l30.132,10.044c0.014,0.005,14.868,4.956,14.868,4.956c0.787,0.262,1.587,0.387,2.373,0.387
	c3.141,0,6.066-1.988,7.114-5.13c1.31-3.93-0.813-8.177-4.743-9.487l-9.872-3.291V439.5c0-4.142-3.357-7.5-7.5-7.5h-22.5V329.192
	C347.771,319.72,353.501,306.769,353.501,292.5z M293.501,285v-15h14.997v15H293.501z M263.501,285v-15h15v15H263.501z M323.498,270
	h15.003v15h-15.003V270z M338.501,192.5V255H316.23c-0.078-0.002-0.154-0.012-0.232-0.012s-0.154,0.009-0.232,0.012h-7.265v-75h17.5
	C332.894,180,338.501,185.607,338.501,192.5z M276.001,180h17.5v75h-30v-62.5C263.501,185.607,269.108,180,276.001,180z
	 M248.501,489.094V447h15v37.094L248.501,489.094z M264.256,300h73.491c-3.484,17.096-18.635,30-36.745,30
	S267.74,317.096,264.256,300z M353.501,447v42.094l-15-5V447H353.501z"/>
<path d="M190.202,319.799c0.08-0.019,0.159-0.04,0.238-0.061c0.208-0.056,0.412-0.12,0.613-0.193
	c0.069-0.025,0.138-0.048,0.206-0.075c0.252-0.1,0.498-0.21,0.736-0.336c0.069-0.034,0.085-0.042,0.101-0.051l37.435-19.965
	c2.444-1.304,3.971-3.848,3.971-6.618v-120c0-2.634-1.382-5.076-3.641-6.431c-2.259-1.356-5.063-1.426-7.388-0.187L188.501,184
	l-33.905-18.083c-0.016-0.009-0.032-0.017-0.048-0.026c-0.291-0.151-0.537-0.261-0.789-0.361c-0.068-0.027-0.137-0.05-0.206-0.075
	c-0.2-0.073-0.404-0.137-0.611-0.192c-0.08-0.021-0.16-0.043-0.241-0.062c-0.204-0.047-0.412-0.084-0.623-0.115
	c-0.076-0.011-0.151-0.026-0.227-0.035c-0.272-0.031-0.547-0.049-0.826-0.05c-0.327,0.001-0.602,0.02-0.874,0.05
	c-0.076,0.009-0.151,0.024-0.227,0.035c-0.211,0.031-0.418,0.067-0.623,0.115c-0.081,0.019-0.16,0.04-0.241,0.062
	c-0.208,0.056-0.411,0.12-0.612,0.192c-0.069,0.025-0.138,0.048-0.206,0.075c-0.252,0.1-0.498,0.21-0.736,0.336
	c-0.069,0.034-0.085,0.042-0.101,0.051L113.501,184L79.53,165.882c-2.323-1.24-5.129-1.169-7.388,0.187
	c-2.259,1.355-3.641,3.797-3.641,6.431v120c0,2.77,1.527,5.314,3.971,6.618l37.435,19.965c0.016,0.009,0.032,0.017,0.048,0.026
	c0.291,0.151,0.537,0.261,0.789,0.361c0.068,0.027,0.137,0.05,0.206,0.075c0.2,0.073,0.404,0.137,0.612,0.192
	c0.08,0.021,0.16,0.043,0.241,0.062c0.204,0.048,0.412,0.084,0.623,0.115c0.076,0.011,0.151,0.026,0.227,0.035
	c0.272,0.031,0.547,0.049,0.826,0.05c0.327-0.001,0.602-0.02,0.874-0.05c0.076-0.009,0.151-0.024,0.227-0.035
	c0.21-0.03,0.418-0.067,0.623-0.115c0.081-0.019,0.161-0.041,0.241-0.062c0.208-0.056,0.411-0.12,0.611-0.192
	c0.069-0.025,0.138-0.048,0.206-0.075c0.252-0.1,0.498-0.21,0.736-0.336c0.069-0.034,0.085-0.042,0.101-0.051L151.001,301
	l33.905,18.083c0.016,0.009,0.032,0.017,0.048,0.026c0.291,0.151,0.537,0.261,0.789,0.361c0.068,0.027,0.137,0.05,0.206,0.075
	c0.201,0.073,0.405,0.137,0.613,0.193c0.079,0.021,0.158,0.043,0.238,0.061c0.207,0.048,0.417,0.085,0.629,0.116
	c0.074,0.011,0.146,0.025,0.22,0.034c0.28,0.032,0.564,0.052,0.852,0.052s0.572-0.02,0.852-0.052
	c0.074-0.008,0.147-0.023,0.22-0.034C189.786,319.884,189.996,319.847,190.202,319.799z M158.501,185l22.5,12v103l-22.5-12V185z
	 M218.501,288l-22.5,12V197l22.5-12V288z M83.501,185l22.5,12v55.5c0,4.142,3.358,7.5,7.5,7.5s7.5-3.358,7.5-7.5V197l22.5-12v103
	l-22.5,12v-17.5c0-4.142-3.358-7.5-7.5-7.5s-7.5,3.358-7.5,7.5V300l-22.5-12C83.501,288,83.501,185,83.501,185z"/>
<path d="M298.303,149.932c0.894,0.045,1.793,0.068,2.698,0.068s1.804-0.023,2.698-0.068c40.109-1.428,72.302-34.481,72.302-74.932
	c0-41.355-33.645-75-75-75s-75,33.645-75,75C226.001,115.45,258.195,148.504,298.303,149.932z M302.928,134.951
	c-0.641,0.02-1.281,0.049-1.927,0.049s-1.286-0.029-1.927-0.049c-17.367-0.883-31.646-13.64-34.879-30.291
	c25.031-2.055,47.915-13.495,64.607-32.299c6.024,6.656,9.7,15.476,9.7,25.139C338.501,117.531,322.714,133.945,302.928,134.951z
	 M264.35,89.58C267.996,72.694,283.041,60,301.001,60c5.583,0,10.881,1.236,15.647,3.433C302.93,78.368,284.504,87.58,264.35,89.58z
	 M301.001,15c33.084,0,60,26.916,60,60c0,10.899-2.936,21.119-8.036,29.938c0.346-2.431,0.536-4.913,0.536-7.438
	c0-28.949-23.552-52.5-52.5-52.5s-52.5,23.551-52.5,52.5c0,2.525,0.19,5.007,0.536,7.438c-5.101-8.819-8.036-19.039-8.036-29.938
	C241.001,41.916,267.917,15,301.001,15z"/>
<g>
</g>
<g>
</g>
<g>
</g>
<g>
</g>
<g>
</g>
<g>
</g>
<g>
</g>
<g>
</g>
<g>
</g>
<g>
</g>
<g>
</g>
<g>
</g>
<g>
</g>
<g>
</g>
<g>
</g>
</svg>
