<svg height="512pt" viewBox="-53 0 512 512" width="512pt" xmlns="http://www.w3.org/2000/svg"><path d="m339.5 172.5h-30l-25 65h80zm0 0" fill="#fff"/><path d="m364.5 217.5h-80l10 189h60zm0 0" fill="#c27749"/><path d="m279.5 406.5h-30v-159h50zm0 0" fill="#85453d"/><path d="m269.5 172.5c-11.046875 0-20 8.953125-20 20v55c0 22.203125 12.070312 41.578125 30 51.953125v107.046875h30v-234zm0 0" fill="#a45e43"/><path d="m369.5 406.5h30v-159h-50zm0 0" fill="#60312c"/><path d="m379.5 172.5h-40v234h29.996094v-107.046875c17.933594-10.375 30.003906-29.75 30.003906-51.953125v-55c0-11.046875-8.957031-20-20-20zm0 0" fill="#85453d"/><path d="m391.214844 114.589844c-.003906-3.5-1.214844-6.710938-3.226563-9.261719l-29.988281-37.828125-33.5 75h60c8.28125 0 15-6.226562 15-14.511719 0-5.867187-3.375-10.933593-8.285156-13.398437zm0 0" fill="#85453d"/><path d="m257.78125 114.589844c.003906-3.5 1.214844-6.710938 3.226562-9.261719l29.992188-37.828125 33.5 75s-51.71875 0-60 0c-8.285156 0-15-6.226562-15-14.511719 0-5.867187 3.375-10.933593 8.28125-13.398437zm0 0" fill="#a45e43"/><path d="m324.5 52.488281v90c24.851562 0 45-20.148437 45-45 0-24.851562-20.148438-45-45-45zm0 0" fill="#ffd9d4"/><path d="m339.5 97.488281c0-24.851562-6.71875-45-15-45-24.855469 0-45 20.148438-45 45 0 24.851563 20.144531 45 45 45 8.28125 0 15-20.148437 15-45zm0 0" fill="#fff0d3"/><path d="m369.5 37.5-45-10-10 12.5 10 27.5h33.5zm0 0" fill="#353535"/><path d="m279.5 37.5 11.5 30h33.5v-40zm0 0" fill="#4f4f4f"/><path d="m7.5 52.5h91v60h-91l30-30zm0 0" fill="#ffe2a8"/><path d="m189.5 22.5h-30l-46 30 46 30h30zm0 0" fill="#ffa754"/><path d="m98.5 22.5c-8.285156 0-15 6.714844-15 15v60l30-15h46v-60zm0 0" fill="#ffcb63"/><path d="m98.5 82.5h15v15c0 8.285156-6.714844 15-15 15s-15-6.714844-15-15 6.714844-15 15-15zm0 0" fill="#ffa754"/><path d="m379.5 165h-110c-12.5625 0-23.179688 8.472656-26.453125 20h-46.046875v-177.5c0-4.144531-3.355469-7.5-7.5-7.5s-7.5 3.355469-7.5 7.5v7.5h-83.5c-12.40625 0-22.5 10.09375-22.5 22.5v7.5h-68.5c-3.03125 0-5.769531 1.828125-6.929688 4.628906-1.160156 2.804688-.5195308 6.027344 1.625 8.175782l24.699219 24.695312-24.695312 24.695312c-2.1484378 2.144532-2.789063 5.371094-1.625 8.175782 1.15625 2.800781 3.894531 4.628906 6.925781 4.628906h91c12.40625 0 22.5-10.09375 22.5-22.5v-7.5h61v65h-7.5c-12.40625 0-22.5 10.09375-22.5 22.5s10.09375 22.5 22.5 22.5h7.5v304.496094c0 4.144531 3.359375 7.5 7.5 7.5 4.144531 0 7.5-3.355469 7.5-7.5v-304.496094h45v206.5c0 4.140625 3.359375 7.5 7.5 7.5h37.5v75.09375l-24.871094 8.289062c-3.929687 1.308594-6.054687 5.558594-4.742187 9.488282 1.046875 3.140625 3.972656 5.128906 7.113281 5.128906.785156 0 1.585938-.125 2.371094-.386719l30-10c3.0625-1.019531 5.128906-3.886719 5.128906-7.113281v-80.5h45v80.5c0 3.226562 2.066406 6.09375 5.128906 7.113281l30 10c.785156.261719 1.585938.386719 2.371094.386719 3.140625 0 6.066406-1.988281 7.113281-5.128906 1.3125-3.929688-.8125-8.179688-4.742187-9.488282l-24.871094-8.289062v-75.09375h37.5c4.144531 0 7.5-3.359375 7.5-7.5v-214c0-15.164062-12.339844-27.5-27.5-27.5zm-336.695312-77.195312c2.929687-2.929688 2.929687-7.679688 0-10.609376l-17.199219-17.195312h50.394531v37.5c0 2.628906.457031 5.152344 1.289062 7.5h-51.683593zm63.195312 9.695312c0 4.136719-3.363281 7.5-7.5 7.5s-7.5-3.363281-7.5-7.5 3.363281-7.5 7.5-7.5h7.5zm-7.5-22.5c-2.628906 0-5.152344.457031-7.5 1.289062v-38.789062c0-4.136719 3.363281-7.5 7.5-7.5h83.5v45zm76 110c-4.136719 0-7.5-3.363281-7.5-7.5s3.363281-7.5 7.5-7.5h7.5v15zm217.5 7.5v55c0 18.667969-10.0625 36.089844-26.257812 45.460938-2.316407 1.34375-3.746094 3.816406-3.746094 6.492187l.003906 99.546875h-15v-219h32.5c6.890625 0 12.5 5.605469 12.5 12.5zm-75 32.5h15v30h-15zm15-15h-15v-30h15zm-15 60h15v129h-15zm-47.5-90h32.5v219h-15v-99.546875c0-2.675781-1.425781-5.148437-3.742188-6.492187-16.195312-9.371094-26.257812-26.792969-26.257812-45.460938v-55c0-6.894531 5.605469-12.5 12.5-12.5zm-12.5 109.859375c4.238281 5.261719 9.273438 9.917969 15 13.753906v95.386719h-15zm135 109.140625h-15l-.003906-95.390625c5.726562-3.835937 10.765625-8.492187 15.003906-13.753906zm0 0"/><path d="m264.5 150h120c12.617188 0 22.5-9.667969 22.5-22.011719 0-7.070312-3.253906-13.558593-8.710938-17.769531-.679687-3.460938-2.175781-6.703125-4.421874-9.550781l-26.257813-33.117188c-.332031-.480469-.671875-.957031-1.019531-1.429687l9.914062-25.945313c.777344-2.035156.632813-4.308593-.402344-6.230469-1.03125-1.917968-2.847656-3.292968-4.976562-3.765624l-45-10c-1.070312-.238282-2.183594-.238282-3.253906 0l-45 10c-2.128906.472656-3.945313 1.847656-4.980469 3.765624-1.03125 1.921876-1.175781 4.195313-.398437 6.234376l9.921874 25.941406c-.339843.453125-.664062.914062-.988281 1.378906l-26.304687 33.179688c-2.238282 2.839843-3.734375 6.078124-4.414063 9.535156-5.457031 4.210937-8.707031 10.703125-8.707031 17.773437 0 12.34375 9.882812 22.011719 22.5 22.011719zm22.5-52.5c0-7.554688 2.273438-14.871094 6.476562-21.050781l1.148438-1.449219h59.75l1.191406 1.503906c4.175782 6.167969 6.433594 13.460938 6.433594 20.996094 0 20.675781-16.820312 37.5-37.5 37.5s-37.5-16.824219-37.5-37.5zm96.71875 17.097656c0 2.832032 1.601562 5.421875 4.132812 6.695313 2.558594 1.285156 4.148438 3.851562 4.148438 6.695312 0 3.996094-3.226562 7.011719-7.5 7.011719h-23.308594c8.480469-8.296875 14.164063-19.429688 15.5-31.847656l5.410156 6.824218c.738282.929688 1.613282 2.488282 1.617188 4.621094zm-59.21875-79.414062 34.894531 7.753906-6.523437 17.0625h-56.738282l-6.527343-17.0625zm-63.351562 86.109375c2.53125-1.273438 4.128906-3.863281 4.132812-6.695313.003906-2.132812.878906-3.6875 1.605469-4.609375l5.421875-6.839843c1.335937 12.421874 7.023437 23.554687 15.5 31.851562h-23.308594c-4.277344 0-7.5-3.015625-7.5-7.011719 0-2.84375 1.589844-5.410156 4.148438-6.695312zm0 0"/></svg>