<?xml version="1.0"?>
<svg xmlns="http://www.w3.org/2000/svg" viewBox="0 0 64 64" width="512" height="512"><g id="Filled_outline" data-name="Filled outline"><rect x="23" y="15" width="18" height="18" style="fill:#ffd782"/><rect x="26" y="28" width="12" height="2" style="fill:#2e3131"/><rect x="26" y="18" width="2" height="2" style="fill:#2e3131"/><rect x="36" y="18" width="2" height="2" style="fill:#2e3131"/><rect x="19" y="37" width="26" height="24" style="fill:#ebb562"/><path d="M16,37h3a0,0,0,0,1,0,0V60.99a0,0,0,0,1,0,0H13a0,0,0,0,1,0,0V40A3,3,0,0,1,16,37Z" style="fill:#c66e26"/><path d="M45,37h6a0,0,0,0,1,0,0V61a0,0,0,0,1,0,0H48a3,3,0,0,1-3-3V37A0,0,0,0,1,45,37Z" transform="translate(96 98) rotate(180)" style="fill:#c66e26"/><rect x="31" y="22" width="2" height="4" style="fill:#2e3131"/><rect x="15" y="11" width="34" height="4" style="fill:#c66e26"/><polygon points="41 11 23 11 25 3 39 3 41 11" style="fill:#ebb562"/><path d="M23,27a4,4,0,0,1,0-8Z" style="fill:#ebb562"/><path d="M41,19a4,4,0,0,1,0,8Z" style="fill:#ebb562"/><polygon points="32 53 39 50 39 37 38 37 32 53" style="fill:#c66e26"/><polygon points="32 53 25 50 25 37 26 37 32 53" style="fill:#c66e26"/><rect x="31" y="53" width="2" height="8" style="fill:#894512"/><rect x="36" y="55" width="5" height="2" style="fill:#894512"/><rect x="26" y="28" width="12" height="2"/><rect x="26" y="18" width="2" height="2"/><rect x="36" y="18" width="2" height="2"/><path d="M12,40V61.99L52,62V40a4,4,0,0,0-4-4H16A4,4,0,0,0,12,40Zm34-2h2a2,2,0,0,1,2,2V60H46ZM39.394,50.919A1,1,0,0,0,40,50V38h4V60H33V53.659ZM38,49.341l-4.241,1.817L38,39.848ZM36.557,38,32,50.151,27.443,38ZM26,39.848l4.241,11.31L26,49.341ZM20,38h4V50a1,1,0,0,0,.606.919L31,53.659V60H20Zm-6,2a2,2,0,0,1,2-2h2V59.99H14Z"/><rect x="31" y="22" width="2" height="4"/><path d="M50,16V10H41.781l-2-8H24.219l-2,8H14v6h8v2.1a5,5,0,0,0,0,9.8V34H42V27.9a5,5,0,0,0,0-9.8V16ZM22,25.829a3,3,0,0,1,0-5.658ZM25.781,4H38.219l1.5,6H24.281ZM40,18V32H24V16H40Zm4,5a3.006,3.006,0,0,1-2,2.829V20.171A3.006,3.006,0,0,1,44,23ZM16,14V12H48v2Z"/><rect x="36" y="55" width="5" height="2"/></g></svg>
