<svg id="Capa_1" enable-background="new 0 0 512 512" height="512" viewBox="0 0 512 512" width="512" xmlns="http://www.w3.org/2000/svg"><g><path d="m457.394 232.783c0-28.061-22.748-50.809-50.809-50.809h-77.125c-28.061 0-50.809 22.748-50.809 50.809v86.152c0 21.083 7.318 40.447 19.529 55.73-4.494 34.342-6.282 81.835-6.282 110.315 0 14.923 12.098 27.021 27.021 27.021s27.021-12.098 27.021-27.021c0-25.95 1.302-54.805 3.296-78.667 12.417 2.657 25.135 2.662 37.574 0 1.994 23.863 3.296 52.717 3.296 78.668 0 14.923 12.098 27.021 27.021 27.021s27.021-12.098 27.021-27.021c0-28.481-1.788-75.974-6.283-110.315 12.211-15.283 19.529-34.646 19.529-55.729z" fill="#fbf1cf"/><path d="m283.173 346.987c3.361 10.15 8.475 19.502 15.007 27.677-4.494 34.342-6.282 81.835-6.282 110.315 0 14.923 12.098 27.021 27.021 27.021s27.021-12.098 27.021-27.021c0-25.95 1.302-54.805 3.296-78.667 12.417 2.657 25.135 2.662 37.574 0 1.994 23.863 3.296 52.717 3.296 78.668 0 14.923 12.098 27.021 27.021 27.021s27.021-12.098 27.021-27.021c0-28.481-1.788-75.974-6.283-110.315 6.532-8.176 11.646-17.527 15.007-27.677h-169.699z" fill="#8daee1"/><path d="m292.076 468.076c-.119 6.116-.177 11.817-.177 16.903 0 14.923 12.098 27.021 27.021 27.021s27.021-12.098 27.021-27.021c0-4.842.046-9.786.132-14.779z" fill="#6e768f"/><path d="m443.971 468.076c.119 6.116.178 11.817.178 16.903 0 14.923-12.098 27.021-27.021 27.021s-27.021-12.098-27.021-27.021c0-4.842-.046-9.786-.132-14.779z" fill="#6e768f"/><ellipse cx="368.023" cy="114.28" fill="#f2d1a5" rx="134.253" ry="114.28"/><g><g fill="#eda1ab"><ellipse cx="286.065" cy="149.825" rx="30.241" ry="24.082"/><ellipse cx="449.98" cy="149.825" rx="30.241" ry="24.082"/></g><g fill="#4e5660"><path d="m303.69 134.142c-4.143 0-7.5-3.358-7.5-7.5v-12.362c0-4.142 3.357-7.5 7.5-7.5 4.142 0 7.5 3.358 7.5 7.5v12.362c0 4.142-3.358 7.5-7.5 7.5z"/><path d="m432.356 134.142c-4.142 0-7.5-3.358-7.5-7.5v-12.362c0-4.142 3.358-7.5 7.5-7.5 4.143 0 7.5 3.358 7.5 7.5v12.362c0 4.142-3.357 7.5-7.5 7.5z"/><path d="m368.023 141.501c-8.668 0-16.911-3.754-22.615-10.299-2.722-3.122-2.397-7.86.727-10.582 3.122-2.722 7.86-2.397 10.582.726 2.854 3.276 6.976 5.154 11.307 5.154s8.452-1.878 11.307-5.154c2.723-3.123 7.459-3.448 10.582-.726 3.123 2.721 3.448 7.459.727 10.582-5.706 6.545-13.95 10.299-22.617 10.299z"/></g></g><path d="m318.08 315.554-91.558 91.558c-11.714 11.715-30.707 11.715-42.422 0l-165.59-165.59c-11.714-11.714-11.714-30.707 0-42.422l91.558-91.558c27.327-27.327 71.633-27.327 98.96 0l109.052 109.052c27.327 27.327 27.327 71.633 0 98.96z" fill="#e7889d"/><path d="m134.629 91.638c-8.951 3.405-17.35 8.694-24.561 15.905l-91.558 91.557c-11.715 11.715-11.715 30.707 0 42.422l165.59 165.59c11.714 11.715 30.707 11.715 42.422 0l3.381-3.381c-71.026-58.987-120.028-212.22-95.274-312.093z" fill="#e16e7e"/><path d="m209.45 166.956c-28.468-28.467-74.789-28.468-103.257 0-13.79 13.79-21.386 32.126-21.386 51.628s7.595 37.838 21.386 51.628c14.234 14.234 32.931 21.351 51.628 21.351 18.698 0 37.395-7.117 51.629-21.351 13.79-13.79 21.385-32.126 21.385-51.628s-7.595-37.838-21.385-51.628zm-51.629-6.386c12.966 0 25.274 4.239 35.369 12.038l-16.263 16.263c-12.77-10.992-27.612-17.968-46.214-21.605 8.255-4.373 17.503-6.696 27.108-6.696zm8.467 38.94-27.541 27.541c-10.239-12.294-16.244-27.066-18.836-46.376 19.312 2.591 34.084 8.596 46.377 18.835zm-66.481 19.074c0-9.609 2.325-18.859 6.701-27.115 3.637 18.602 10.606 33.452 21.6 46.223l-16.262 16.262c-7.8-10.096-12.039-22.404-12.039-35.37zm58.014 58.014c-12.966 0-25.274-4.239-35.37-12.038l16.259-16.259c12.771 10.995 27.632 17.954 46.235 21.592-8.258 4.379-17.511 6.705-27.124 6.705zm-8.467-38.94 27.541-27.541c10.239 12.294 16.244 27.065 18.836 46.376-19.311-2.591-34.084-8.597-46.377-18.835zm59.778 8.003c-3.64-18.586-10.603-33.428-21.591-46.191l16.251-16.251c13.966 18.13 15.755 42.679 5.34 62.442z" fill="#f6ee86"/><path d="m221.165 328.064c-1.919 0-3.839-.732-5.303-2.197-2.929-2.929-2.929-7.678 0-10.606l38.636-38.636c2.928-2.929 7.677-2.929 10.607 0 2.929 2.929 2.929 7.678 0 10.606l-38.636 38.636c-1.465 1.465-3.384 2.197-5.304 2.197z" fill="#fff"/><path d="m499.632 91.621c-12.35-52.26-66.577-91.621-131.609-91.621s-119.259 39.361-131.609 91.621c32.185 4.453 68.671-27.266 69.17-33.255l62.439-14.966 62.44 14.967c.498 5.989 36.984 37.708 69.169 33.254z" fill="#daa985"/><path d="m430.462 58.367c-77.128 25.83-149.826 3.06-191.689-24.336-15.409-10.084-8.276-34.031 10.139-34.031h119.111z" fill="#daa985"/><path d="m463.772 198.267c-1.285-.326-2.572-.552-3.853-.684-8.397 6.715-17.806 12.524-28.017 17.236-.371.97-.704 1.964-.966 2.996-6.058 23.879-33.939 46.096-82.612 41.91-14.873-1.29-27.958 9.736-29.239 24.604-1.279 14.868 9.736 27.959 24.605 29.239 76.306 6.573 127.23-33.594 139.628-82.464 3.671-14.466-5.081-29.168-19.546-32.837z" fill="#f2d1a5"/><path d="m463.772 198.267c-1.285-.326-2.572-.552-3.853-.684-8.397 6.715-17.806 12.524-28.017 17.236-.371.97-.704 1.964-.966 2.996-5.016 19.774-25.014 38.393-59.376 41.838l7.32 53.566c56.672-6.394 94.059-41.201 104.439-82.115 3.67-14.466-5.082-29.168-19.547-32.837z" fill="#f7dfb7"/></g></svg>